# xmcd CD database file
#
# Track frame offsets:
#	150
#	38989
#	60633
#	93144
#	124654
#	161841
#	195889
#
# Disc length: 3084 seconds
#
# Revision: 0
# Processed by: cddbd v1.5.2PL0 Copyright (c) Steve Scherf et al.
# Submitted via: CDex 1.70beta3
#
DISCID=510c0a07
DTITLE=Shibuya Takshi - Ichino Motohiko - Sotoyama Akira - Childhood
DYEAR=2016
DGENRE=Jazz
TTITLE0=Childhood
TTITLE1=No Restrictions for Plasterer
TTITLE2=Short Piece for a Day
TTITLE3=Falling Grace
TTITLE4=Subconscious-Lee
TTITLE5=Hiking
TTITLE6=Folk Song
EXTD=YEAR: 2016
EXTT0=
EXTT1=
EXTT2=
EXTT3=
EXTT4=
EXTT5=
EXTT6=
PLAYORDER=
